# xmcd CD database file
#
# Track frame offsets:
#	182
#	16257
#	25257
#	38287
#	49940
#	68182
#	80522
#	94557
#	123045
#	138620
#
# Disc length: 2129 seconds
#
# Revision: 0
# Processed by: cddbd v1.5.2PL0 Copyright (c) Steve Scherf et al.
# Submitted via: CDex 1.70beta2
#
DISCID=74084f0a
DTITLE=Various Artist - Limitless Luxury Compilation - RED
DYEAR=2002
DGENRE=Jazz
TTITLE0=Take Saravá (Silvia Torres)
TTITLE1=Red (Datach´i)
TTITLE2=Prince Nez (Squirrel Nut Zippers) 
TTITLE3=Love me longer (Vic Damone)
TTITLE4=Caravan on the Move (Mike Batt)
TTITLE5=Balanca Bema ( Roland Mesquita)
TTITLE6=Daytripper (Sergio Mendes and Brazil 66)
TTITLE7=Love for Sale (Ernestine Anderson)
TTITLE8=Use it or loose it (Gotham)
TTITLE9=Breath of Life (World Saxophone Quartet)
EXTD=YEAR: 2002
EXTT0=
EXTT1=
EXTT2=
EXTT3=
EXTT4=
EXTT5=
EXTT6=
EXTT7=
EXTT8=
EXTT9=
PLAYORDER=
